<svg height="40" viewBox="0 0 117 40" width="117" xmlns="http://www.w3.org/2000/svg"><g fill="none" fill-rule="evenodd"><path d="m42 4.14414414c0-.58058348.1057096-1.12612357.3171318-1.63663663.2114223-.51051307.4983482-.9509491.8607864-1.32132132.3624382-.37037223.7903102-.66065961 1.2836289-.87087087.4933186-.21021127 1.0218664-.31531532 1.5856591-.31531532.5637928 0 1.0923405.10510405 1.5856592.31531532.4933186.21021126.9161568.50049864 1.2685273.87087087.3523705.37037222.6292288.81080825.8305834 1.32132132.2013545.51051306.3020303 1.05605315.3020303 1.63663663v9.21921926c.3221673-.3803823.7399717-.7307292 1.2534258-1.0510511s1.0772384-.6005994 1.6913697-.8408408c.6141314-.2402415 1.2483887-.4304298 1.902791-.5705706s1.2836258-.2102102 1.8876895-.2102102c2.0135455 0 3.9163175.3853815 5.7083729 1.1561561 1.7920555.7707747 3.3525299 1.8218152 4.6814699 3.1531532 1.3289401 1.331338 2.3810018 2.887879 3.1562168 4.6696697s1.1628167 3.6836735 1.1628167 5.7057057c0 2.0220321-.3876017 3.91891-1.1628167 5.6906907-.775215 1.7717806-1.8272767 3.3183117-3.1562168 4.6396396-1.32894 1.3213279-2.8894144 2.3673635-4.6814699 3.1381381-1.7920554.7707747-3.6948274 1.1561562-5.7083729 1.1561562-2.033681 0-3.9414867-.3853815-5.7234745-1.1561562-1.7819877-.7707746-3.3474959-1.8168102-4.6965714-3.1381381s-2.4112048-2.867859-3.1864198-4.6396396c-.775215-1.7717807-1.1628167-3.6686586-1.1628167-5.6906907zm8.0642094 21.23123126c0 .9209255.1761826 1.7817778.5285531 2.5825826.3523704.8008048.8356141 1.5014985 1.4497455 2.1021021.6141313.6006036 1.3289293 1.0710693 2.1444152 1.4114114.8154859.340342 1.6762637.5105105 2.5823592.5105105.9262309 0 1.7920425-.1701685 2.5974607-.5105105.8054182-.3403421 1.5101486-.8108078 2.1142122-1.4114114.6040637-.6006036 1.0822735-1.3012973 1.434644-2.1021021s.5285531-1.6616571.5285531-2.5825826c0-.9209256-.1761826-1.7817778-.5285531-2.5825826s-.8305803-1.5014985-1.434644-2.1021021c-.6040636-.6006036-1.308794-1.0710694-2.1142122-1.4114114-.8054182-.3403421-1.6712298-.5105105-2.5974607-.5105105-.9060955 0-1.7668733.1701684-2.5823592.5105105-.8154859.340342-1.5302839.8108078-2.1444152 1.4114114-.6141314.6006036-1.0973751 1.3012973-1.4497455 2.1021021-.3523705.8008048-.5285531 1.661657-.5285531 2.5825826zm34.0569383 6.4564564c.5637928 0 1.0923405.1000991 1.5856592.3003003.4933186.2002012.911123.4804787 1.2534258.8408409.3423027.3603621.6141273.7807784.8154818 1.2612612.2013546.4804829.3020303.9909883.3020303 1.5315316 0 .5605633-.1006757 1.0810786-.3020303 1.5615615-.2013545.4804829-.4731791.8908892-.8154818 1.2312313-.3423028.340342-.7601072.6106096-1.2534258.8108108-.4933187.2002012-1.0218664.3003003-1.5856592.3003003-1.4094818 0-2.7434357-.2352329-4.0019017-.7057057-1.2584659-.4704729-2.3608655-1.1361319-3.3072319-1.996997-.9463664-.8608652-1.6964008-1.886881-2.2501259-3.0780781-.553725-1.1911972-.8305833-2.5075003-.8305833-3.948949v-25.64564561c0-.56056336.1006757-1.08107867.3020303-1.56156156.2013545-.48048288.4782129-.9008991.8305834-1.26126126.3523704-.36036216.7601073-.64564459 1.2232227-.85585585.4631155-.21021127.9664943-.31531532 1.5101516-.31531532.5637928 0 1.0973743.10510405 1.6007607.31531532.5033864.21021126.9463597.49549369 1.3289334.85585585.3825736.36036216.6846009.78077838.9060909 1.26126126.22149.48048289.3322334 1.0009982.3322334 1.56156156v25.82582581c.0402709.5805835.2667913 1.0110096.6795682 1.2912913.4127768.2802817.9715273.4204204 1.6762682.4204204zm11.8577102-2.8828829c.6443345 1.0410463 1.4799434 1.8618589 2.5068516 2.4624625s2.1544765.9009009 3.3827395.9009009c.785283 0 1.414506-.0650644 1.887689-.1951952.473184-.1301308.901056-.3053042 1.283629-.5255255.402709-.2602616.800379-.4454449 1.19302-.5555556.392641-.1101106.770176-.1651651 1.132614-.1651651.563792 0 1.082273.110109 1.555456.3303303s.885954.5205186 1.238324.9009009c.352371.3803823.629229.8208183.830584 1.3213213.201354.500503.30203 1.0210183.30203 1.5615616 0 .6806841-.191284 1.3263233-.573858 1.9369369-.382573.6106137-.966493 1.1411389-1.751776 1.5915916-.785282.4504527-1.766871.8108095-2.944795 1.0810811s-2.562216.4054054-4.152917.4054054c-2.0336809 0-3.9515543-.3853815-5.7536775-1.1561562-1.8021232-.7707746-3.3776989-1.8168102-4.7267744-3.1381381s-2.4162386-2.867859-3.2015213-4.6396396c-.7852828-1.7717807-1.1779183-3.6686586-1.1779183-5.6906907 0-2.0420523.3926355-3.9539451 1.1779183-5.7357358.7852827-1.7817907 1.8524458-3.3383316 3.2015213-4.6696696s2.9246512-2.3773736 4.7267744-3.1381382c1.8021232-.7607645 3.7199966-1.1411411 5.7536775-1.1411411 2.013546 0 3.911284.3753716 5.693271 1.1261261 1.781988.7507545 3.342463 1.7817752 4.68147 3.0930931 1.339008 1.3113179 2.406171 2.847839 3.201522 4.6096096.79535 1.7617706 1.213155 3.6436337 1.253425 5.6456457 0 1.1411468-.367466 2.0570536-1.10241 2.7477477-.734944.6906942-1.68633 1.036036-2.854187 1.036036zm12.4738521-6.6666666c-.563793-1.2012072-1.409469-2.1621586-2.537055-2.8828829-1.127585-.7207243-2.426303-1.0810811-3.896191-1.0810811-1.510159 0-2.7988087.3753716-3.8659879 1.1261261-1.0671791.7507545-1.8725852 1.696691-2.4162425 2.8378379z" fill="#181736" fill-rule="nonzero"/><path d="m31.5298659 40 .1648737-.0000038c-1.861724 0-3.6537578-.7080906-5.0126487-1.9806597-2.3867268-2.2351132-4.6330298-3.3526698-6.7389091-3.3526698-2.1057452 0-4.3516246 1.1174144-6.7376379 3.3522431l.0003839.00041c-1.3361767 1.2515127-3.0921222 1.9580239-4.92273384 1.9806802-4.5746817 0-8.28319396-3.5627208-8.28319396-7.9575597 0-.0080879.00001256-.0161731.00003766-.0242554-.00356983-1.133762.24656813-2.28618.77906123-3.3817421l11.68453201-24.0399942c1.4092641-2.89944874 4.4077191-4.60141677 7.536369-4.59643771 3.12865-.00497906 6.127105 1.69698898 7.5363692 4.59643774l11.684532 24.03999437c1.9359567 3.9830767.1397641 8.7176692-4.0119083 10.5750083-.5019246.2245467-1.0152984.3967592-1.5334377.5189714-.684351.1758333-1.4036246.2695773-2.1456892.2695773z" fill="#181736"/><g transform="translate(8.670455 8.666667)"><path d="m10.5549535 12.3469165-3.06361393-6.39704817c-.946239-1.97581567-.06831261-4.32442274 1.96090348-5.24576072.55206445-.25065737 1.13246705-.3698512 1.70398115-.37077428.5715141.00092308 1.1519167.1201169 1.7039812.37077428 2.0292161.92133797 2.9071425 3.26994503 1.9609035 5.24576068l-3.063614 6.39704821c-.1590331.3320726-.5571529.4723489-.8892256.3133158-.1371063-.0656617-.2476541-.1762095-.3133158-.3133158z" fill="#588efc"/><path d="m7.72922381 19.258304c-.946239 1.9758156-3.35832193 2.8306387-5.38753801 1.9093007-1.4710994-.6679327-2.33711983-2.0859898-2.34168607-3.5683227.00118327-.394941.06020162-.7762336.16900771-1.1358076.05612133-.1826908.12654908-.3636727.21177489-.5416304l.0717011-.149717c.65947189-1.2536 1.97205639-2.1080973 3.48365245-2.1080973h5.41379599c.36818983 0 .66666663.2984768.66666663.6666666 0 .0996666-.02234673.198065-.06539595.2879549z" fill="#f8836d"/><path d="m20.0220446 21.1676049c-2.0292161.9213379-4.4412991.0665149-5.3875381-1.9093008l-2.2219788-4.6396529c-.1590331-.3320726-.0187568-.7301925.3133158-.8892255.0898899-.0430493.1882883-.065396.2879549-.065396h5.3224252c2.173878 0 3.9361543 1.767297 3.9361543 3.9473684 0 1.4058539-.7328464 2.6400547-1.8363302 3.3393615-.1320541.0790284-.2701351.1515239-.4140031.2168453z" fill="#fdcf99"/></g></g></svg>